<svg width="32" height="32" viewBox="0 0 32 32" fill="none" xmlns="http://www.w3.org/2000/svg">
<path d="M15.0948 0.0185059C6.64359 0.420902 -0.025564 7.45908 7.36689e-05 15.9198C0.00787976 18.4967 0.629995 20.929 1.72744 23.0781L0.0424715 31.2572C-0.0486761 31.6996 0.350353 32.087 0.789866 31.9829L8.80435 30.0841C10.8634 31.1098 13.1761 31.7022 15.6238 31.7395C24.2617 31.8715 31.4642 25.0127 31.7334 16.3781C32.022 7.12227 24.3829 -0.423839 15.0948 0.0185059ZM24.6578 24.6578C22.3106 27.0049 19.19 28.2975 15.8707 28.2975C13.9271 28.2975 12.0664 27.8614 10.3399 27.0015L9.22381 26.4455L4.31011 27.6096L5.34441 22.5887L4.79454 21.5119C3.8983 19.7567 3.44386 17.8587 3.44386 15.8707C3.44386 12.5513 4.73646 9.43073 7.08357 7.08355C9.4097 4.75741 12.5813 3.44377 15.8709 3.44377C19.1902 3.44385 22.3107 4.73644 24.6578 7.08347C27.0049 9.43058 28.2975 12.5512 28.2976 15.8704C28.2975 19.1602 26.9839 22.3317 24.6578 24.6578Z" fill="#16697A"/>
<path d="M23.5732 19.3125L20.499 18.4298C20.0949 18.3138 19.6596 18.4284 19.3652 18.7285L18.6134 19.4944C18.2964 19.8174 17.8154 19.9211 17.3959 19.7514C15.9417 19.1629 12.8826 16.443 12.1014 15.0825C11.876 14.6901 11.9132 14.1994 12.19 13.8413L12.8463 12.9922C13.1034 12.6596 13.1577 12.2128 12.9877 11.8282L11.6943 8.90298C11.3845 8.20234 10.4892 7.99839 9.90425 8.49308C9.04627 9.21874 8.02826 10.3215 7.90451 11.5431C7.68632 13.697 8.61005 16.4121 12.1031 19.6723C16.1386 23.4388 19.3701 23.9364 21.4742 23.4267C22.6676 23.1376 23.6213 21.9788 24.2232 21.03C24.6336 20.3831 24.3096 19.5239 23.5732 19.3125Z" fill="white"/>
</svg>
