<svg xmlns="http://www.w3.org/2000/svg">

	<symbol id="insta" viewBox="0 0 32 32">
		<mask id="mask0_22_99" style="mask-type:luminance" maskUnits="userSpaceOnUse" x="0" y="0" width="32" height="32">
			<path fill-rule="evenodd" clip-rule="evenodd" d="M0 16C0 7.16344 7.16344 0 16 0C24.8366 0 32 7.16344 32 16C32 24.8366 24.8366 32 16 32C7.16344 32 0 24.8366 0 16Z" />
		</mask>
		<g mask="url(#mask0_22_99)">
			<path fill-rule="evenodd" clip-rule="evenodd" d="M0 16C0 7.16344 7.16344 0 16 0C24.8366 0 32 7.16344 32 16C32 24.8366 24.8366 32 16 32C7.16344 32 0 24.8366 0 16Z" />
			<path fill-rule="evenodd" clip-rule="evenodd" d="M16.0008 7.46667C13.6833 7.46667 13.3924 7.47681 12.4822 7.51823C11.5737 7.55983 10.9536 7.70366 10.4111 7.91468C9.84981 8.13264 9.37372 8.4242 8.8994 8.89869C8.42473 9.37301 8.13317 9.8491 7.9145 10.4102C7.70294 10.9529 7.55894 11.5732 7.51805 12.4813C7.47734 13.3915 7.46667 13.6826 7.46667 16.0001C7.46667 18.3176 7.47699 18.6076 7.51823 19.5178C7.56001 20.4263 7.70383 21.0464 7.91468 21.589C8.13282 22.1502 8.42437 22.6263 8.89887 23.1006C9.37301 23.5753 9.8491 23.8676 10.41 24.0855C10.9529 24.2965 11.5732 24.4404 12.4815 24.482C13.3917 24.5234 13.6824 24.5335 15.9997 24.5335C18.3175 24.5335 18.6074 24.5234 19.5176 24.482C20.4261 24.4404 21.0469 24.2965 21.5898 24.0855C22.1509 23.8676 22.6263 23.5753 23.1004 23.1006C23.5751 22.6263 23.8667 22.1502 24.0853 21.5891C24.2951 21.0464 24.4391 20.4261 24.4818 19.518C24.5227 18.6078 24.5333 18.3176 24.5333 16.0001C24.5333 13.6826 24.5227 13.3917 24.4818 12.4815C24.4391 11.573 24.2951 10.9529 24.0853 10.4103C23.8667 9.8491 23.5751 9.37301 23.1004 8.89869C22.6258 8.42402 22.1511 8.13246 21.5893 7.91468C21.0453 7.70366 20.4249 7.55983 19.5164 7.51823C18.6062 7.47681 18.3164 7.46667 15.9981 7.46667H16.0008ZM15.2353 9.00447C15.4625 9.00411 15.716 9.00447 16.0008 9.00447C18.2792 9.00447 18.5493 9.01265 19.449 9.05354C20.281 9.09158 20.7326 9.2306 21.0334 9.34741C21.4316 9.50207 21.7155 9.68696 22.014 9.98563C22.3127 10.2843 22.4976 10.5688 22.6526 10.967C22.7694 11.2674 22.9086 11.719 22.9465 12.551C22.9874 13.4506 22.9963 13.7208 22.9963 15.9981C22.9963 18.2755 22.9874 18.5457 22.9465 19.4453C22.9084 20.2773 22.7694 20.7289 22.6526 21.0293C22.4979 21.4275 22.3127 21.7111 22.014 22.0096C21.7154 22.3083 21.4318 22.4931 21.0334 22.6478C20.7329 22.7651 20.281 22.9038 19.449 22.9419C18.5495 22.9827 18.2792 22.9916 16.0008 22.9916C13.7222 22.9916 13.4522 22.9827 12.5526 22.9419C11.7206 22.9035 11.269 22.7644 10.968 22.6476C10.5698 22.493 10.2854 22.3081 9.9867 22.0094C9.68803 21.7107 9.50314 21.427 9.34812 21.0286C9.23132 20.7281 9.09211 20.2766 9.05425 19.4446C9.01336 18.545 9.00518 18.2748 9.00518 15.996C9.00518 13.7172 9.01336 13.4484 9.05425 12.5489C9.09229 11.7169 9.23132 11.2653 9.34812 10.9645C9.50279 10.5663 9.68803 10.2818 9.9867 9.98315C10.2854 9.68448 10.5698 9.49958 10.968 9.34456C11.2688 9.22723 11.7206 9.08856 12.5526 9.05034C13.3398 9.01478 13.6449 9.00411 15.2353 9.00234V9.00447ZM20.5559 10.4214C19.9905 10.4214 19.5319 10.8795 19.5319 11.445C19.5319 12.0104 19.9905 12.469 20.5559 12.469C21.1212 12.469 21.5799 12.0104 21.5799 11.445C21.5799 10.8797 21.1212 10.421 20.5559 10.421V10.4214ZM16.0008 11.6178C13.5807 11.6178 11.6185 13.58 11.6185 16.0001C11.6185 18.4202 13.5807 20.3815 16.0008 20.3815C18.4209 20.3815 20.3824 18.4202 20.3824 16.0001C20.3824 13.58 18.4207 11.6178 16.0006 11.6178H16.0008ZM16.0008 13.1556C17.5717 13.1556 18.8453 14.4291 18.8453 16.0001C18.8453 17.571 17.5717 18.8446 16.0008 18.8446C14.4298 18.8446 13.1563 17.571 13.1563 16.0001C13.1563 14.4291 14.4298 13.1556 16.0008 13.1556V13.1556Z" fill="white"/>
		</g>
	</symbol>

	<symbol id="telegramm" viewBox="0 0 32 32">
		<path fill-rule="evenodd" clip-rule="evenodd" d="M16 32C24.8366 32 32 24.8366 32 16C32 7.16344 24.8366 0 16 0C7.16344 0 0 7.16344 0 16C0 24.8366 7.16344 32 16 32Z" />
		<path fill-rule="evenodd" clip-rule="evenodd" d="M13.0667 23.3333C12.5483 23.3333 12.6364 23.1376 12.4576 22.644L10.9333 17.6274L22.6667 10.6666" />
		<path fill-rule="evenodd" clip-rule="evenodd" d="M13.0667 23.3333C13.4667 23.3333 13.6434 23.1504 13.8667 22.9333L16 20.8589L13.3389 19.2543" />
		<path fill-rule="evenodd" clip-rule="evenodd" d="M13.3386 19.2547L19.7866 24.0185C20.5224 24.4245 21.0535 24.2143 21.2368 23.3354L23.8614 10.967C24.1301 9.88963 23.4507 9.40099 22.7468 9.72056L7.33484 15.6634C6.28283 16.0853 6.28896 16.6722 7.14308 16.9338L11.0981 18.1682L20.2545 12.3915C20.6868 12.1294 21.0835 12.2703 20.7579 12.5593" fill="white"/>
	</symbol>

	<symbol id="watsapp" viewBox="0 0 32 32">
		<path d="M15.0948 0.0185059C6.64359 0.420902 -0.025564 7.45908 7.36689e-05 15.9198C0.00787976 18.4967 0.629995 20.929 1.72744 23.0781L0.0424715 31.2572C-0.0486761 31.6996 0.350353 32.087 0.789866 31.9829L8.80435 30.0841C10.8634 31.1098 13.1761 31.7022 15.6238 31.7395C24.2617 31.8715 31.4642 25.0127 31.7334 16.3781C32.022 7.12227 24.3829 -0.423839 15.0948 0.0185059ZM24.6578 24.6578C22.3106 27.0049 19.19 28.2975 15.8707 28.2975C13.9271 28.2975 12.0664 27.8614 10.3399 27.0015L9.22381 26.4455L4.31011 27.6096L5.34441 22.5887L4.79454 21.5119C3.8983 19.7567 3.44386 17.8587 3.44386 15.8707C3.44386 12.5513 4.73646 9.43073 7.08357 7.08355C9.4097 4.75741 12.5813 3.44377 15.8709 3.44377C19.1902 3.44385 22.3107 4.73644 24.6578 7.08347C27.0049 9.43058 28.2975 12.5512 28.2976 15.8704C28.2975 19.1602 26.9839 22.3317 24.6578 24.6578Z" />
		<path d="M23.5732 19.3125L20.499 18.4298C20.0949 18.3138 19.6596 18.4284 19.3652 18.7285L18.6134 19.4944C18.2964 19.8174 17.8154 19.9211 17.3959 19.7514C15.9417 19.1629 12.8826 16.443 12.1014 15.0825C11.876 14.6901 11.9132 14.1994 12.19 13.8413L12.8463 12.9922C13.1034 12.6596 13.1577 12.2128 12.9877 11.8282L11.6943 8.90298C11.3845 8.20234 10.4892 7.99839 9.90425 8.49308C9.04627 9.21874 8.02826 10.3215 7.90451 11.5431C7.68632 13.697 8.61005 16.4121 12.1031 19.6723C16.1386 23.4388 19.3701 23.9364 21.4742 23.4267C22.6676 23.1376 23.6213 21.9788 24.2232 21.03C24.6336 20.3831 24.3096 19.5239 23.5732 19.3125Z" fill="white"/>
	</symbol>
</svg>
